# xmcd
#
# Track frame offsets:
#	150
#	13646
#	27394
#	44097
#	60386
#	81751
#	96893
#	113963
#	128342
#	141926
#	159298
#	177473
#	192767
#	217603
#	230455
#	243524
#
# Disc length: 3416 seconds
#
# Revision: 0
# Processed by: cddbd v1.5.1PL0 Copyright (c) Steve Scherf et al.
# Submitted via: dBpowerAMP V4.0
#
DISCID=ce0d5610
DTITLE=Various Artist - Finnhits 13
DYEAR=1980
DGENRE=Dance
TTITLE0=Katri Helena - Mun Sydämeni tänne jää (1980)
TTITLE1=Mikko Alatalo - Rikoo on riskillä ruma (1980)
TTITLE2=Seija Simola - Jos katsot silmiini (1980)
TTITLE3=Mika Sundqvist - Moottoripyörä on moottoripyörä (19
TTITLE4=Tarja Ylitalo - Mua kuule äiti (1980)
TTITLE5=Markku Aro - Daniela (1980)
TTITLE6=Paula Koivuniemi - Meren taa (1980)
TTITLE7=Eino Grön - Näkemiin Moskova (1980)
TTITLE8=Frederik - Kolmekymppinen (1980)
TTITLE9=Taiska - Rannalla (1980)
TTITLE10=Matti Esko - Yksin (1980)
TTITLE11=Eini - Xanadu (1980)
TTITLE12=Vesa-Matti Loiri - Löysöläisen laulu (1980)
TTITLE13=Pirjo Lehti - Portit (1980)
TTITLE14=Eero Piirto - Kirijeen sulle kirijootan (1980)
TTITLE15=Matti Asla - Pepita (1981)
EXTD=finnish schlager
EXTT0=
EXTT1=
EXTT2=
EXTT3=
EXTT4=
EXTT5=
EXTT6=
EXTT7=
EXTT8=
EXTT9=
EXTT10=
EXTT11=
EXTT12=
EXTT13=
EXTT14=
EXTT15=
PLAYORDER=
